# xmcd
#
# Track frame offsets:
#	150
#	24150
#	42587
#	61212
#	85050
#	102772
#	123977
#	140912
#
# Disc length: 2316 seconds
#
# Revision: 0
# Processed by: cddbd v1.4PL0 Copyright (c) Steve Scherf et al.
# Submitted via: audiograbber 1.81.03
#
DISCID=65090a08
DTITLE=Kyrios - Kyrios
DYEAR=1996
DGENRE=Contemporary Christian Rock
TTITLE0=Temp(oral)
TTITLE1=96.2 Vida Fm
TTITLE2=Atytudes
TTITLE3=Roda de Fogo
TTITLE4=Povo do Infinito
TTITLE5=1 Princípio do Fim
TTITLE6=História do Manel
TTITLE7=Brilho Nos Olhos
EXTD=
EXTT0=
EXTT1=
EXTT2=
EXTT3=
EXTT4=
EXTT5=
EXTT6=
EXTT7=
PLAYORDER=
